<?xml version="1.0" encoding="UTF-8"?>
<svg xmlns="http://www.w3.org/2000/svg" x="0px" y="0px" width="100" height="100" viewBox="0 0 64 64">
<linearGradient id="AkLBDwIexvY7mNPQhxR82a_DdwG8WMwQ8AL_gr1" x1="35.44" x2="35.565" y1="16.727" y2="57.748" gradientUnits="userSpaceOnUse"><stop offset="0" stop-color="#6dc7ff"></stop><stop offset="1" stop-color="#e6abff"></stop></linearGradient><polygon fill="url(#AkLBDwIexvY7mNPQhxR82a_DdwG8WMwQ8AL_gr1)" points="32,32 32,35 35,35 35,38 39,38 38,35 38,32 35,32"></polygon><linearGradient id="AkLBDwIexvY7mNPQhxR82b_DdwG8WMwQ8AL_gr2" x1="39.906" x2="40.072" y1="8.652" y2="63.277" gradientUnits="userSpaceOnUse"><stop offset="0" stop-color="#6dc7ff"></stop><stop offset="1" stop-color="#e6abff"></stop></linearGradient><polygon fill="url(#AkLBDwIexvY7mNPQhxR82b_DdwG8WMwQ8AL_gr2)" points="41,41 42,38 41.01,38 38,37 38,41"></polygon><linearGradient id="AkLBDwIexvY7mNPQhxR82c_DdwG8WMwQ8AL_gr3" x1="45.915" x2="46.081" y1="10.68" y2="65.181" gradientUnits="userSpaceOnUse"><stop offset="0" stop-color="#6dc7ff"></stop><stop offset="1" stop-color="#e6abff"></stop></linearGradient><polygon fill="url(#AkLBDwIexvY7mNPQhxR82c_DdwG8WMwQ8AL_gr3)" points="44,35 44,39 48,38 47,35"></polygon><linearGradient id="AkLBDwIexvY7mNPQhxR82d_DdwG8WMwQ8AL_gr4" x1="39.444" x2="39.61" y1="11.691" y2="66.191" gradientUnits="userSpaceOnUse"><stop offset="0" stop-color="#6dc7ff"></stop><stop offset="1" stop-color="#e6abff"></stop></linearGradient><polygon fill="url(#AkLBDwIexvY7mNPQhxR82d_DdwG8WMwQ8AL_gr4)" points="38,32 41,32 41,28 38,29"></polygon><linearGradient id="AkLBDwIexvY7mNPQhxR82e_DdwG8WMwQ8AL_gr5" x1="41.955" x2="42.121" y1="12.63" y2="67.256" gradientUnits="userSpaceOnUse"><stop offset="0" stop-color="#6dc7ff"></stop><stop offset="1" stop-color="#e6abff"></stop></linearGradient><polygon fill="url(#AkLBDwIexvY7mNPQhxR82e_DdwG8WMwQ8AL_gr5)" points="40,29 44,29 44,26 41,25"></polygon><linearGradient id="AkLBDwIexvY7mNPQhxR82f_DdwG8WMwQ8AL_gr6" x1="44.968" x2="45.135" y1="13.643" y2="68.144" gradientUnits="userSpaceOnUse"><stop offset="0" stop-color="#6dc7ff"></stop><stop offset="1" stop-color="#e6abff"></stop></linearGradient><polygon fill="url(#AkLBDwIexvY7mNPQhxR82f_DdwG8WMwQ8AL_gr6)" points="44,23 43,26 47,26 47,22"></polygon><linearGradient id="AkLBDwIexvY7mNPQhxR82g_DdwG8WMwQ8AL_gr7" x1="50.953" x2="51.119" y1="13.623" y2="68.134" gradientUnits="userSpaceOnUse"><stop offset="0" stop-color="#6dc7ff"></stop><stop offset="1" stop-color="#e6abff"></stop></linearGradient><polygon fill="url(#AkLBDwIexvY7mNPQhxR82g_DdwG8WMwQ8AL_gr7)" points="47,26 47,29 51,29 52.57,30 54,29 55,29 54,26"></polygon><linearGradient id="AkLBDwIexvY7mNPQhxR82h_DdwG8WMwQ8AL_gr8" x1="50.93" x2="51.073" y1="13.654" y2="60.494" gradientUnits="userSpaceOnUse"><stop offset="0" stop-color="#6dc7ff"></stop><stop offset="1" stop-color="#e6abff"></stop></linearGradient><polygon fill="url(#AkLBDwIexvY7mNPQhxR82h_DdwG8WMwQ8AL_gr8)" points="51,32 50,32 48,32 47,32 47,35 48,35 50,36 51,38 55,38 54,32 54,31 52.531,30 51,31"></polygon><linearGradient id="AkLBDwIexvY7mNPQhxR82i_DdwG8WMwQ8AL_gr9" x1="48.88" x2="49.087" y1="1.647" y2="69.703" gradientUnits="userSpaceOnUse"><stop offset="0" stop-color="#6dc7ff"></stop><stop offset="1" stop-color="#e6abff"></stop></linearGradient><polygon fill="url(#AkLBDwIexvY7mNPQhxR82i_DdwG8WMwQ8AL_gr9)" points="47,38 46,41 47,41 50,42 52,41 51,38 50,37"></polygon><linearGradient id="AkLBDwIexvY7mNPQhxR82j_DdwG8WMwQ8AL_gr10" x1="42.882" x2="43.025" y1="12.766" y2="59.694" gradientUnits="userSpaceOnUse"><stop offset="0" stop-color="#6dc7ff"></stop><stop offset="1" stop-color="#e6abff"></stop></linearGradient><polygon fill="url(#AkLBDwIexvY7mNPQhxR82j_DdwG8WMwQ8AL_gr10)" points="44,46 44,47 44,48 41,48 38,48 38,51 48,52 47,44 44,44"></polygon><linearGradient id="AkLBDwIexvY7mNPQhxR82k_DdwG8WMwQ8AL_gr11" x1="32.368" x2="32.535" y1="6.359" y2="60.984" gradientUnits="userSpaceOnUse"><stop offset="0" stop-color="#6dc7ff"></stop><stop offset="1" stop-color="#e6abff"></stop></linearGradient><polygon fill="url(#AkLBDwIexvY7mNPQhxR82k_DdwG8WMwQ8AL_gr11)" points="34,48 31,48 31,51 34,52"></polygon><linearGradient id="AkLBDwIexvY7mNPQhxR82l_DdwG8WMwQ8AL_gr12" x1="27.369" x2="27.535" y1="6.379" y2="61.004" gradientUnits="userSpaceOnUse"><stop offset="0" stop-color="#6dc7ff"></stop><stop offset="1" stop-color="#e6abff"></stop></linearGradient><polygon fill="url(#AkLBDwIexvY7mNPQhxR82l_DdwG8WMwQ8AL_gr12)" points="29,48 26,48 26,51 29,52"></polygon><linearGradient id="AkLBDwIexvY7mNPQhxR82m_DdwG8WMwQ8AL_gr13" x1="21.369" x2="21.535" y1="6.404" y2="61.029" gradientUnits="userSpaceOnUse"><stop offset="0" stop-color="#6dc7ff"></stop><stop offset="1" stop-color="#e6abff"></stop></linearGradient><polygon fill="url(#AkLBDwIexvY7mNPQhxR82m_DdwG8WMwQ8AL_gr13)" points="20,51 23,52 23,48 20,48"></polygon><linearGradient id="AkLBDwIexvY7mNPQhxR82n_DdwG8WMwQ8AL_gr14" x1="27.422" x2="27.547" y1="16.759" y2="57.759" gradientUnits="userSpaceOnUse"><stop offset="0" stop-color="#6dc7ff"></stop><stop offset="1" stop-color="#e6abff"></stop></linearGradient><rect width="3" height="3" x="26" y="41" fill="url(#AkLBDwIexvY7mNPQhxR82n_DdwG8WMwQ8AL_gr14)"></rect><linearGradient id="AkLBDwIexvY7mNPQhxR82o_DdwG8WMwQ8AL_gr15" x1="24.431" x2="24.556" y1="16.768" y2="57.769" gradientUnits="userSpaceOnUse"><stop offset="0" stop-color="#6dc7ff"></stop><stop offset="1" stop-color="#e6abff"></stop></linearGradient><rect width="3" height="3" x="23" y="38" fill="url(#AkLBDwIexvY7mNPQhxR82o_DdwG8WMwQ8AL_gr15)"></rect><linearGradient id="AkLBDwIexvY7mNPQhxR82p_DdwG8WMwQ8AL_gr16" x1="15.917" x2="16.059" y1="13.796" y2="60.221" gradientUnits="userSpaceOnUse"><stop offset="0" stop-color="#6dc7ff"></stop><stop offset="1" stop-color="#e6abff"></stop></linearGradient><polygon fill="url(#AkLBDwIexvY7mNPQhxR82p_DdwG8WMwQ8AL_gr16)" points="16,47 20,48 20,44 23,44 23,41 20,41 20,38 17,38 17,35 20,35 20,32 17,31 13,32 12,34 10,35 9,41 10,44"></polygon><linearGradient id="AkLBDwIexvY7mNPQhxR82q_DdwG8WMwQ8AL_gr17" x1="20.963" x2="21.088" y1="16.764" y2="57.805" gradientUnits="userSpaceOnUse"><stop offset="0" stop-color="#6dc7ff"></stop><stop offset="1" stop-color="#e6abff"></stop></linearGradient><polygon fill="url(#AkLBDwIexvY7mNPQhxR82q_DdwG8WMwQ8AL_gr17)" points="23,29 19,29 20,32 23,32"></polygon><linearGradient id="AkLBDwIexvY7mNPQhxR82r_DdwG8WMwQ8AL_gr18" x1="24.467" x2="24.592" y1="16.768" y2="57.768" gradientUnits="userSpaceOnUse"><stop offset="0" stop-color="#6dc7ff"></stop><stop offset="1" stop-color="#e6abff"></stop></linearGradient><rect width="3" height="3" x="23" y="26" fill="url(#AkLBDwIexvY7mNPQhxR82r_DdwG8WMwQ8AL_gr18)"></rect><linearGradient id="AkLBDwIexvY7mNPQhxR82s_DdwG8WMwQ8AL_gr19" x1="18.476" x2="18.622" y1="15.26" y2="63.051" gradientUnits="userSpaceOnUse"><stop offset="0" stop-color="#6dc7ff"></stop><stop offset="1" stop-color="#e6abff"></stop></linearGradient><polygon fill="url(#AkLBDwIexvY7mNPQhxR82s_DdwG8WMwQ8AL_gr19)" points="21,23 20,20 18.499,19 17,20 16,23 17,26 20,26"></polygon><linearGradient id="AkLBDwIexvY7mNPQhxR82t_DdwG8WMwQ8AL_gr20" x1="20.993" x2="21.2" y1="15.644" y2="83.71" gradientUnits="userSpaceOnUse"><stop offset="0" stop-color="#6dc7ff"></stop><stop offset="1" stop-color="#e6abff"></stop></linearGradient><polygon fill="url(#AkLBDwIexvY7mNPQhxR82t_DdwG8WMwQ8AL_gr20)" points="23,16 20,17 19,20 21.563,21 23,20"></polygon><linearGradient id="AkLBDwIexvY7mNPQhxR82u_DdwG8WMwQ8AL_gr21" x1="31.991" x2="32.199" y1="15.583" y2="83.751" gradientUnits="userSpaceOnUse"><stop offset="0" stop-color="#6dc7ff"></stop><stop offset="1" stop-color="#e6abff"></stop></linearGradient><polygon fill="url(#AkLBDwIexvY7mNPQhxR82u_DdwG8WMwQ8AL_gr21)" points="35,21 35,17 29,16 29,20 32,20"></polygon><linearGradient id="AkLBDwIexvY7mNPQhxR82v_DdwG8WMwQ8AL_gr22" x1="36.464" x2="36.607" y1="15.278" y2="62.092" gradientUnits="userSpaceOnUse"><stop offset="0" stop-color="#6dc7ff"></stop><stop offset="1" stop-color="#e6abff"></stop></linearGradient><polygon fill="url(#AkLBDwIexvY7mNPQhxR82v_DdwG8WMwQ8AL_gr22)" points="34,27 39,27 38,20 38,19 35,20"></polygon><linearGradient id="AkLBDwIexvY7mNPQhxR82w_DdwG8WMwQ8AL_gr23" x1="21.344" x2="21.509" y1="3.893" y2="58.023" gradientUnits="userSpaceOnUse"><stop offset="0" stop-color="#6dc7ff"></stop><stop offset="1" stop-color="#e6abff"></stop></linearGradient><polygon fill="url(#AkLBDwIexvY7mNPQhxR82w_DdwG8WMwQ8AL_gr23)" points="17,54 16,57 20,57 23,57 26,57 27,53"></polygon><linearGradient id="AkLBDwIexvY7mNPQhxR82x_DdwG8WMwQ8AL_gr24" x1="33.349" x2="33.515" y1="3.398" y2="57.982" gradientUnits="userSpaceOnUse"><stop offset="0" stop-color="#6dc7ff"></stop><stop offset="1" stop-color="#e6abff"></stop></linearGradient><polygon fill="url(#AkLBDwIexvY7mNPQhxR82x_DdwG8WMwQ8AL_gr24)" points="28,53 29,57 32,57 35,57 38,57 39,53"></polygon><g><linearGradient id="AkLBDwIexvY7mNPQhxR82y_DdwG8WMwQ8AL_gr25" x1="30.5" x2="30.5" y1="6.781" y2="57.29" gradientUnits="userSpaceOnUse"><stop offset="0" stop-color="#1a6dff"></stop><stop offset="1" stop-color="#c822ff"></stop></linearGradient><polygon fill="url(#AkLBDwIexvY7mNPQhxR82y_DdwG8WMwQ8AL_gr25)" points="41,14 41,10 41,7 26,7 26,10 23,10 23,13 20,13 20,17 23,17 26,17 29,17 32,17 35,17 35,20 38,20 38,14"></polygon><linearGradient id="AkLBDwIexvY7mNPQhxR82z_DdwG8WMwQ8AL_gr26" x1="33.5" x2="33.5" y1="6.781" y2="57.29" gradientUnits="userSpaceOnUse"><stop offset="0" stop-color="#1a6dff"></stop><stop offset="1" stop-color="#c822ff"></stop></linearGradient><rect width="3" height="10" x="32" y="20" fill="url(#AkLBDwIexvY7mNPQhxR82z_DdwG8WMwQ8AL_gr26)"></rect><linearGradient id="AkLBDwIexvY7mNPQhxR82A_DdwG8WMwQ8AL_gr27" x1="41" x2="41" y1="6.781" y2="57.29" gradientUnits="userSpaceOnUse"><stop offset="0" stop-color="#1a6dff"></stop><stop offset="1" stop-color="#c822ff"></stop></linearGradient><polygon fill="url(#AkLBDwIexvY7mNPQhxR82A_DdwG8WMwQ8AL_gr27)" points="41,20 38,20 38,29 41,29 41,26 44,26 44,23 41,23"></polygon><linearGradient id="AkLBDwIexvY7mNPQhxR82B_DdwG8WMwQ8AL_gr28" x1="49" x2="49" y1="6.781" y2="57.29" gradientUnits="userSpaceOnUse"><stop offset="0" stop-color="#1a6dff"></stop><stop offset="1" stop-color="#c822ff"></stop></linearGradient><rect width="10" height="3" x="44" y="20" fill="url(#AkLBDwIexvY7mNPQhxR82B_DdwG8WMwQ8AL_gr28)"></rect><linearGradient id="AkLBDwIexvY7mNPQhxR82C_DdwG8WMwQ8AL_gr29" x1="55.5" x2="55.5" y1="6.781" y2="57.29" gradientUnits="userSpaceOnUse"><stop offset="0" stop-color="#1a6dff"></stop><stop offset="1" stop-color="#c822ff"></stop></linearGradient><rect width="3" height="6" x="54" y="23" fill="url(#AkLBDwIexvY7mNPQhxR82C_DdwG8WMwQ8AL_gr29)"></rect><linearGradient id="AkLBDwIexvY7mNPQhxR82D_DdwG8WMwQ8AL_gr30" x1="55.5" x2="55.5" y1="6.781" y2="57.29" gradientUnits="userSpaceOnUse"><stop offset="0" stop-color="#1a6dff"></stop><stop offset="1" stop-color="#c822ff"></stop></linearGradient><rect width="3" height="6" x="54" y="32" fill="url(#AkLBDwIexvY7mNPQhxR82D_DdwG8WMwQ8AL_gr30)"></rect><linearGradient id="AkLBDwIexvY7mNPQhxR82E_DdwG8WMwQ8AL_gr31" x1="52.5" x2="52.5" y1="6.781" y2="57.29" gradientUnits="userSpaceOnUse"><stop offset="0" stop-color="#1a6dff"></stop><stop offset="1" stop-color="#c822ff"></stop></linearGradient><rect width="3" height="2" x="51" y="29" fill="url(#AkLBDwIexvY7mNPQhxR82E_DdwG8WMwQ8AL_gr31)"></rect><linearGradient id="AkLBDwIexvY7mNPQhxR82F_DdwG8WMwQ8AL_gr32" x1="39.5" x2="39.5" y1="6.781" y2="57.29" gradientUnits="userSpaceOnUse"><stop offset="0" stop-color="#1a6dff"></stop><stop offset="1" stop-color="#c822ff"></stop></linearGradient><rect width="3" height="3" x="38" y="35" fill="url(#AkLBDwIexvY7mNPQhxR82F_DdwG8WMwQ8AL_gr32)"></rect><linearGradient id="AkLBDwIexvY7mNPQhxR82G_DdwG8WMwQ8AL_gr33" x1="49" x2="49" y1="6.781" y2="57.29" gradientUnits="userSpaceOnUse"><stop offset="0" stop-color="#1a6dff"></stop><stop offset="1" stop-color="#c822ff"></stop></linearGradient><rect width="4" height="3" x="47" y="35" fill="url(#AkLBDwIexvY7mNPQhxR82G_DdwG8WMwQ8AL_gr33)"></rect><linearGradient id="AkLBDwIexvY7mNPQhxR82H_DdwG8WMwQ8AL_gr34" x1="44" x2="44" y1="6.781" y2="57.29" gradientUnits="userSpaceOnUse"><stop offset="0" stop-color="#1a6dff"></stop><stop offset="1" stop-color="#c822ff"></stop></linearGradient><rect width="6" height="3" x="41" y="38" fill="url(#AkLBDwIexvY7mNPQhxR82H_DdwG8WMwQ8AL_gr34)"></rect><linearGradient id="AkLBDwIexvY7mNPQhxR82I_DdwG8WMwQ8AL_gr35" x1="15" x2="15" y1="6.781" y2="57.29" gradientUnits="userSpaceOnUse"><stop offset="0" stop-color="#1a6dff"></stop><stop offset="1" stop-color="#c822ff"></stop></linearGradient><rect width="4" height="3" x="13" y="54" fill="url(#AkLBDwIexvY7mNPQhxR82I_DdwG8WMwQ8AL_gr35)"></rect><linearGradient id="AkLBDwIexvY7mNPQhxR82J_DdwG8WMwQ8AL_gr36" x1="21.5" x2="21.5" y1="6.781" y2="57.29" gradientUnits="userSpaceOnUse"><stop offset="0" stop-color="#1a6dff"></stop><stop offset="1" stop-color="#c822ff"></stop></linearGradient><rect width="3" height="6" x="20" y="20" fill="url(#AkLBDwIexvY7mNPQhxR82J_DdwG8WMwQ8AL_gr36)"></rect><linearGradient id="AkLBDwIexvY7mNPQhxR82K_DdwG8WMwQ8AL_gr37" x1="15" x2="15" y1="6.781" y2="57.29" gradientUnits="userSpaceOnUse"><stop offset="0" stop-color="#1a6dff"></stop><stop offset="1" stop-color="#c822ff"></stop></linearGradient><rect width="4" height="6" x="13" y="20" fill="url(#AkLBDwIexvY7mNPQhxR82K_DdwG8WMwQ8AL_gr37)"></rect><linearGradient id="AkLBDwIexvY7mNPQhxR82L_DdwG8WMwQ8AL_gr38" x1="18.5" x2="18.5" y1="6.781" y2="57.29" gradientUnits="userSpaceOnUse"><stop offset="0" stop-color="#1a6dff"></stop><stop offset="1" stop-color="#c822ff"></stop></linearGradient><rect width="3" height="3" x="17" y="17" fill="url(#AkLBDwIexvY7mNPQhxR82L_DdwG8WMwQ8AL_gr38)"></rect><linearGradient id="AkLBDwIexvY7mNPQhxR82M_DdwG8WMwQ8AL_gr39" x1="11.5" x2="11.5" y1="6.781" y2="57.29" gradientUnits="userSpaceOnUse"><stop offset="0" stop-color="#1a6dff"></stop><stop offset="1" stop-color="#c822ff"></stop></linearGradient><rect width="3" height="3" x="10" y="26" fill="url(#AkLBDwIexvY7mNPQhxR82M_DdwG8WMwQ8AL_gr39)"></rect><linearGradient id="AkLBDwIexvY7mNPQhxR82N_DdwG8WMwQ8AL_gr40" x1="16.5" x2="16.5" y1="6.781" y2="57.29" gradientUnits="userSpaceOnUse"><stop offset="0" stop-color="#1a6dff"></stop><stop offset="1" stop-color="#c822ff"></stop></linearGradient><rect width="7" height="3" x="13" y="29" fill="url(#AkLBDwIexvY7mNPQhxR82N_DdwG8WMwQ8AL_gr40)"></rect><linearGradient id="AkLBDwIexvY7mNPQhxR82O_DdwG8WMwQ8AL_gr41" x1="11.5" x2="11.5" y1="6.781" y2="57.29" gradientUnits="userSpaceOnUse"><stop offset="0" stop-color="#1a6dff"></stop><stop offset="1" stop-color="#c822ff"></stop></linearGradient><rect width="3" height="3" x="10" y="32" fill="url(#AkLBDwIexvY7mNPQhxR82O_DdwG8WMwQ8AL_gr41)"></rect><linearGradient id="AkLBDwIexvY7mNPQhxR82P_DdwG8WMwQ8AL_gr42" x1="8.5" x2="8.5" y1="6.781" y2="57.29" gradientUnits="userSpaceOnUse"><stop offset="0" stop-color="#1a6dff"></stop><stop offset="1" stop-color="#c822ff"></stop></linearGradient><rect width="3" height="9" x="7" y="35" fill="url(#AkLBDwIexvY7mNPQhxR82P_DdwG8WMwQ8AL_gr42)"></rect><linearGradient id="AkLBDwIexvY7mNPQhxR82Q_DdwG8WMwQ8AL_gr43" x1="32" x2="32" y1="6.781" y2="57.29" gradientUnits="userSpaceOnUse"><stop offset="0" stop-color="#1a6dff"></stop><stop offset="1" stop-color="#c822ff"></stop></linearGradient><polygon fill="url(#AkLBDwIexvY7mNPQhxR82Q_DdwG8WMwQ8AL_gr43)" points="13,48 13,51 17,51 17,54 26,54 26,57 29,57 29,54 38,54 38,57 41,57 41,54 47,54 51,54 51,51 51,44 54,44 54,38 51,38 51,41 47,41 47,49 44,49 44,51 20,51 20,47 17,47 17,44 10,44 10,48"></polygon></g>
</svg>


